<?xml version="1.0" encoding="utf-8"?>
<!-- Generator: Adobe Illustrator 20.0.0, SVG Export Plug-In . SVG Version: 6.00 Build 0)  -->
<svg version="1.1" id="Layer_1" xmlns="http://www.w3.org/2000/svg" xmlns:xlink="http://www.w3.org/1999/xlink" x="0px" y="0px"
	 viewBox="0 0 612 792" style="enable-background:new 0 0 612 792;" xml:space="preserve">
<style type="text/css">
	.st0{fill:none;stroke:#000000;stroke-width:0.8;stroke-linecap:round;}
</style>
<path class="st0" d="M320.1,327"/>
<path class="st0" d="M320.1,327"/>
<path class="st0" d="M5,636.9V363.1"/>
<path class="st0" d="M13.3,656.9c-5.2-5.2-8.3-12.6-8.3-20"/>
<path class="st0" d="M33.4,665.2c-7.4,0-14.8-3.1-20-8.3"/>
<path class="st0" d="M201,665.2H33.4"/>
<path class="st0" d="M21.3,645.5c-0.4-2.2,1.2-4.5,3.4-4.9v0.1c2.2-0.4,4.5,1.2,4.9,3.4l0,0c0.4,2.2-1.2,4.5-3.4,4.9l-0.1,0.1
	c-2.2,0.3-4.5-1.3-4.9-3.5"/>
<path class="st0" d="M20,356.4c0.4,2.2,2.7,3.8,4.9,3.5c2.2-0.4,3.8-2.7,3.4-4.9c0,0,0,0,0,0c-0.4-2.2-2.7-3.8-4.9-3.5
	c-2.2,0.4-3.8,2.7-3.5,4.9"/>
<polyline class="st0" points="39,460.9 39,424.6 83.2,424.6 83.2,460.9 39,460.9 83.2,460.9 "/>
<polyline class="st0" points="39,514.9 39,478.6 83.2,478.6 83.2,514.9 39,514.9 83.2,514.9 "/>
<polyline class="st0" points="39,568.9 39,532.6 83.2,532.6 83.2,568.9 39,568.9 83.2,568.9 "/>
<polyline class="st0" points="39,622.9 39,586.6 83.3,586.6 83.3,622.9 39,622.9 83.3,622.9 "/>
<path class="st0" d="M93,544.1"/>
<line class="st0" x1="137.3" y1="544.1" x2="93" y2="544.1"/>
<path class="st0" d="M137.3,580.4"/>
<line class="st0" x1="137.3" y1="544.1" x2="137.3" y2="580.4"/>
<path class="st0" d="M93,580.4"/>
<line class="st0" x1="93" y1="544.1" x2="93" y2="580.4"/>
<path class="st0" d="M137.3,580.4"/>
<line class="st0" x1="93" y1="580.4" x2="137.3" y2="580.4"/>
<rect x="93" y="490.1" class="st0" width="44.2" height="36.3"/>
<polyline class="st0" points="93,472.4 93,436.1 137.2,436.1 137.2,472.4 93,472.4 137.2,472.4 "/>
<rect x="93" y="382.1" class="st0" width="44.2" height="36.3"/>
<polyline class="st0" points="147,404.2 147,367.9 191.2,367.9 191.2,404.2 147,404.2 191.2,404.2 "/>
<polyline class="st0" points="147,458.2 147,421.9 191.2,421.9 191.2,458.2 147,458.2 191.2,458.2 "/>
<polyline class="st0" points="147,512.2 147,475.9 191.2,475.9 191.2,512.2 147,512.2 191.2,512.2 "/>
<polyline class="st0" points="147,566.2 147,529.9 191.3,529.9 191.3,566.2 147,566.2 191.3,566.2 "/>
<polyline class="st0" points="201,583.2 201,546.9 245.3,546.9 245.3,583.2 201,583.2 245.3,583.2 "/>
<polyline class="st0" points="201,529.2 201,492.9 245.2,492.9 245.2,529.2 201,529.2 245.2,529.2 "/>
<path class="st0" d="M245.2,475.2"/>
<line class="st0" x1="245.2" y1="438.9" x2="245.2" y2="475.2"/>
<path class="st0" d="M245.2,475.2"/>
<polyline class="st0" points="245.2,475.2 201,475.2 201,438.9 245.2,438.9 "/>
<polyline class="st0" points="201,421.2 201,384.9 245.2,384.9 245.2,421.2 201,421.2 245.2,421.2 "/>
<polyline class="st0" points="255,435.4 255,399.1 299.2,399.1 299.2,435.4 255,435.4 299.2,435.4 "/>
<polyline class="st0" points="255,489.4 255,453.1 299.2,453.1 299.2,489.4 255,489.4 299.2,489.4 "/>
<polyline class="st0" points="255,543.4 255,507.1 299.2,507.1 299.3,543.4 255,543.4 299.3,543.4 "/>
<path class="st0" d="M299.3,622.4"/>
<path class="st0" d="M255,622.4"/>
<path class="st0" d="M299.3,622.4"/>
<polygon class="st0" points="255,561.1 299.2,561.1 299.3,597.4 255,597.4 "/>
<polyline class="st0" points="312.9,680.2 282.3,660.7 306.1,623.3 336.7,642.8 312.9,680.2 336.7,642.8 "/>
<path class="st0" d="M589.3,531.7"/>
<g>
	<path class="st0" d="M5,363.1c0-7.4,3.1-14.8,8.3-20"/>
	<path class="st0" d="M13.4,343.1c5.2-5.2,12.6-8.3,20-8.3"/>
</g>
<path class="st0" d="M341.4,363.1v208.3V363.1z"/>
<path class="st0" d="M325.1,579.5c0.4-2.2-1.2-4.5-3.4-4.9v0.1c-2.2-0.4-4.5,1.2-4.9,3.4l0,0c-0.4,2.2,1.2,4.5,3.4,4.9l0.1,0.1
	c2.2,0.3,4.5-1.3,4.9-3.5"/>
<path class="st0" d="M326.4,356.4c-0.4,2.2-2.7,3.8-4.9,3.5c-2.2-0.4-3.8-2.7-3.4-4.9c0,0,0,0,0,0c0.4-2.2,2.7-3.8,4.9-3.5
	c2.2,0.4,3.8,2.7,3.5,4.9"/>
<g>
	<path class="st0" d="M333.1,343.1c5.2,5.2,8.3,12.6,8.3,20"/>
	<path class="st0" d="M313,334.8c7.4,0,14.8,3.1,20,8.3"/>
</g>
<line class="st0" x1="33.4" y1="334.8" x2="313" y2="334.8"/>
<path class="st0" d="M228.6,652.5c-0.4-2.2,1.2-4.5,3.4-4.9v0.1c2.2-0.4,4.5,1.2,4.9,3.4l0,0c0.4,2.2-1.2,4.5-3.4,4.9l-0.1,0.1
	c-2.2,0.3-4.5-1.3-4.9-3.5"/>
<path class="st0" d="M341.4,570.7c0,0-0.4,23.7,15.2,33.6c15.6,9.9,25.8,30.3,13.9,49.1c-12,18.8-31.9,50.1-31.9,50.1
	s-19.7,25.5-48.1,7.4c-28.4-18.1-57.3-36.5-57.3-36.5s-13.3-9.2-32.1-9.2s-24.6,0-24.6,0"/>
</svg>
