<?xml version="1.0" encoding="utf-8"?>
<!-- Generator: Adobe Illustrator 20.0.0, SVG Export Plug-In . SVG Version: 6.00 Build 0)  -->
<svg version="1.1" id="Layer_1" xmlns="http://www.w3.org/2000/svg" xmlns:xlink="http://www.w3.org/1999/xlink" x="0px" y="0px"
	 viewBox="0 0 612 792" style="enable-background:new 0 0 612 792;" xml:space="preserve">
<style type="text/css">
	.st0{fill:none;stroke:#000000;stroke-width:0.8;stroke-linecap:round;}
</style>
<path class="st0" d="M320.1,397.4"/>
<path class="st0" d="M320.1,397.4"/>
<path class="st0" d="M5,707.3V433.5"/>
<path class="st0" d="M13.3,727.3c-5.2-5.2-8.3-12.6-8.3-20"/>
<path class="st0" d="M33.4,735.6c-7.4,0-14.8-3.1-20-8.3"/>
<path class="st0" d="M201,735.6H33.4"/>
<path class="st0" d="M21.3,715.9c-0.4-2.2,1.2-4.5,3.4-4.9v0.1c2.2-0.4,4.5,1.2,4.9,3.4l0,0c0.4,2.2-1.2,4.5-3.4,4.9l-0.1,0.1
	c-2.2,0.3-4.5-1.3-4.9-3.5"/>
<path class="st0" d="M20,426.8c0.4,2.2,2.7,3.8,4.9,3.5c2.2-0.4,3.8-2.7,3.4-4.9c0,0,0,0,0,0c-0.4-2.2-2.7-3.8-4.9-3.5
	c-2.2,0.4-3.8,2.7-3.5,4.9"/>
<polyline class="st0" points="39,531.3 39,495 83.2,495 83.2,531.3 39,531.3 83.2,531.3 "/>
<polyline class="st0" points="39,585.3 39,549 83.2,549 83.2,585.3 39,585.3 83.2,585.3 "/>
<polyline class="st0" points="39,639.3 39,603 83.2,603 83.2,639.3 39,639.3 83.2,639.3 "/>
<polyline class="st0" points="39,693.3 39,657 83.3,657 83.3,693.3 39,693.3 83.3,693.3 "/>
<path class="st0" d="M93,614.5"/>
<line class="st0" x1="137.3" y1="614.5" x2="93" y2="614.5"/>
<path class="st0" d="M137.3,650.8"/>
<line class="st0" x1="137.3" y1="614.5" x2="137.3" y2="650.8"/>
<path class="st0" d="M93,650.8"/>
<line class="st0" x1="93" y1="614.5" x2="93" y2="650.8"/>
<path class="st0" d="M137.3,650.8"/>
<line class="st0" x1="93" y1="650.8" x2="137.3" y2="650.8"/>
<rect x="93" y="560.5" class="st0" width="44.2" height="36.3"/>
<polyline class="st0" points="93,542.8 93,506.5 137.2,506.5 137.2,542.8 93,542.8 137.2,542.8 "/>
<rect x="93" y="452.5" class="st0" width="44.2" height="36.3"/>
<polyline class="st0" points="147,474.6 147,438.3 191.2,438.3 191.2,474.6 147,474.6 191.2,474.6 "/>
<polyline class="st0" points="147,528.6 147,492.3 191.2,492.3 191.2,528.6 147,528.6 191.2,528.6 "/>
<polyline class="st0" points="147,582.6 147,546.3 191.2,546.3 191.2,582.6 147,582.6 191.2,582.6 "/>
<polyline class="st0" points="147,636.6 147,600.3 191.3,600.3 191.3,636.6 147,636.6 191.3,636.6 "/>
<polyline class="st0" points="201,653.6 201,617.3 245.3,617.3 245.3,653.6 201,653.6 245.3,653.6 "/>
<polyline class="st0" points="201,599.6 201,563.3 245.2,563.3 245.2,599.6 201,599.6 245.2,599.6 "/>
<path class="st0" d="M245.2,545.6"/>
<line class="st0" x1="245.2" y1="509.3" x2="245.2" y2="545.6"/>
<path class="st0" d="M245.2,545.6"/>
<polyline class="st0" points="245.2,545.6 201,545.6 201,509.3 245.2,509.3 "/>
<polyline class="st0" points="201,491.6 201,455.3 245.2,455.3 245.2,491.6 201,491.6 245.2,491.6 "/>
<polyline class="st0" points="255,505.8 255,469.5 299.2,469.5 299.2,505.8 255,505.8 299.2,505.8 "/>
<polyline class="st0" points="255,559.8 255,523.5 299.2,523.5 299.2,559.8 255,559.8 299.2,559.8 "/>
<polyline class="st0" points="255,613.8 255,577.5 299.2,577.5 299.3,613.8 255,613.8 299.3,613.8 "/>
<path class="st0" d="M299.3,692.8"/>
<path class="st0" d="M255,692.8"/>
<path class="st0" d="M299.3,692.8"/>
<polygon class="st0" points="255,631.5 299.2,631.5 299.3,667.8 255,667.8 "/>
<polyline class="st0" points="313,750.6 282.3,731.1 306.1,693.7 336.8,713.2 313,750.6 336.8,713.2 "/>
<path class="st0" d="M589.3,602.1"/>
<g>
	<path class="st0" d="M5,433.5c0-7.4,3.1-14.8,8.3-20"/>
	<path class="st0" d="M13.4,413.5c5.2-5.2,12.6-8.3,20-8.3"/>
</g>
<path class="st0" d="M341.4,433.5v208.3V433.5z"/>
<path class="st0" d="M327.1,643.9c0.4-2.2-1.2-4.5-3.4-4.9v0.1c-2.2-0.4-4.5,1.2-4.9,3.4l0,0c-0.4,2.2,1.2,4.5,3.4,4.9l0.1,0.1
	C324.5,647.8,326.8,646.2,327.1,643.9"/>
<path class="st0" d="M326.4,426.8c-0.4,2.2-2.7,3.8-4.9,3.5c-2.2-0.4-3.8-2.7-3.4-4.9c0,0,0,0,0,0c0.4-2.2,2.7-3.8,4.9-3.5
	c2.2,0.4,3.8,2.7,3.5,4.9"/>
<g>
	<path class="st0" d="M333.1,413.5c5.2,5.2,8.3,12.6,8.3,20"/>
	<path class="st0" d="M313,405.2c7.4,0,14.8,3.1,20,8.3"/>
</g>
<line class="st0" x1="33.4" y1="405.2" x2="313" y2="405.2"/>
<path class="st0" d="M228.6,723.9c-0.4-2.2,1.2-4.5,3.4-4.9v0.1c2.2-0.4,4.5,1.2,4.9,3.4l0,0c0.4,2.2-1.2,4.5-3.4,4.9l-0.1,0.1
	c-2.2,0.3-4.5-1.3-4.9-3.5"/>
<path class="st0" d="M341.4,641.1c0,0-0.4,23.7,15.2,33.6c15.6,9.9,25.8,30.3,13.9,49.1c-12,18.8-31.9,50.1-31.9,50.1
	s-19.7,25.5-48.1,7.4c-28.4-18.1-57.3-36.5-57.3-36.5s-13.3-9.2-32.1-9.2s-24.6,0-24.6,0"/>
<path class="st0" d="M612.3,199.6"/>
<g>
	<path class="st0" d="M321.1,2.9"/>
	<path class="st0" d="M321.1,2.9"/>
	<path class="st0" d="M6,312.8V39"/>
	<path class="st0" d="M14.3,332.8c-5.2-5.2-8.3-12.6-8.3-20"/>
	<path class="st0" d="M34.4,341.1c-7.4,0-14.8-3.1-20-8.3"/>
	<path class="st0" d="M202,341.1H34.4"/>
	<path class="st0" d="M22.3,321.4c-0.4-2.2,1.2-4.5,3.4-4.9v0.1c2.2-0.4,4.5,1.2,4.9,3.4l0,0c0.4,2.2-1.2,4.5-3.4,4.9l-0.1,0.1
		c-2.2,0.3-4.5-1.3-4.9-3.5"/>
	<path class="st0" d="M21,32.3c0.4,2.2,2.7,3.8,4.9,3.5c2.2-0.4,3.8-2.7,3.4-4.9c0,0,0,0,0,0c-0.4-2.2-2.7-3.8-4.9-3.5
		c-2.2,0.4-3.8,2.7-3.5,4.9"/>
	<path class="st0" d="M256,298.3"/>
	<g>
		<path class="st0" d="M6,39c0-7.4,3.1-14.8,8.3-20"/>
		<path class="st0" d="M14.4,19c5.2-5.2,12.6-8.3,20-8.3"/>
	</g>
	<path class="st0" d="M342.4,39v208.3V39z"/>
	<path class="st0" d="M328.1,249.4c0.4-2.2-1.2-4.5-3.4-4.9v0.1c-2.2-0.4-4.5,1.2-4.9,3.4l0,0c-0.4,2.2,1.2,4.5,3.4,4.9l0.1,0.1
		c2.2,0.3,4.5-1.3,4.9-3.5"/>
	<path class="st0" d="M327.4,32.3c-0.4,2.2-2.7,3.8-4.9,3.5c-2.2-0.4-3.8-2.7-3.4-4.9c0,0,0,0,0,0c0.4-2.2,2.7-3.8,4.9-3.5
		c2.2,0.4,3.8,2.7,3.5,4.9"/>
	<g>
		<path class="st0" d="M334.1,19c5.2,5.2,8.3,12.6,8.3,20"/>
		<path class="st0" d="M314,10.7c7.4,0,14.8,3.1,20,8.3"/>
	</g>
	<line class="st0" x1="34.4" y1="10.7" x2="314" y2="10.7"/>
	<path class="st0" d="M229.6,329.4c-0.4-2.2,1.2-4.5,3.4-4.9v0.1c2.2-0.4,4.5,1.2,4.9,3.4l0,0c0.4,2.2-1.2,4.5-3.4,4.9l-0.1,0.1
		C232.2,333.3,229.9,331.7,229.6,329.4"/>
	<path class="st0" d="M342.4,246.6c0,0-0.4,23.7,15.2,33.6s25.8,30.3,13.9,49.1c-12,18.8-31.9,50.1-31.9,50.1s-19.7,25.5-48.1,7.4
		c-28.4-18.1-57.3-36.5-57.3-36.5s-13.3-9.2-32.1-9.2s-24.6,0-24.6,0"/>
</g>
</svg>
